<svg width="328" height="153" viewBox="0 0 328 153" fill="none" xmlns="http://www.w3.org/2000/svg">
<g filter="url(#filter0_d)">
<path d="M192 74.5L3.75 147.679L3.75001 1.3208L192 74.5Z" fill="#6A040F"/>
</g>
<g filter="url(#filter1_d)">
<path d="M60.5273 52.293C60.6445 51.8711 60.7734 51.5312 60.9141 51.2734C61.0547 50.9922 61.3711 50.793 61.8633 50.6758L72.2344 48.2852C72.2812 48.2852 72.3398 48.2734 72.4102 48.25C72.4805 48.2266 72.5391 48.2148 72.5859 48.2148C72.9141 48.2148 73.1367 48.3555 73.2539 48.6367C73.3945 48.918 73.4648 49.1875 73.4648 49.4453C73.4648 49.4922 73.4531 49.5859 73.4297 49.7266C73.4297 49.8672 73.418 49.9609 73.3945 50.0078L58.8398 94.2344C58.4648 95.1953 58.1484 95.9805 57.8906 96.5898C57.6562 97.1758 57.4102 97.668 57.1523 98.0664C56.918 98.4414 56.6367 98.7578 56.3086 99.0156C56.0039 99.2734 55.582 99.5312 55.043 99.7891C54.5273 100.047 53.8711 100.34 53.0742 100.668C52.2773 101.02 51.2695 101.488 50.0508 102.074C49.6289 102.285 49.3008 102.391 49.0664 102.391C48.6914 102.391 48.4102 102.25 48.2227 101.969C48.0352 101.688 47.8828 101.371 47.7656 101.02L41.7539 79.6094L34.2305 95.1133C34.1133 95.3945 33.8438 95.7695 33.4219 96.2383C33 96.707 32.5195 97.1875 31.9805 97.6797C31.4648 98.1719 30.9375 98.6523 30.3984 99.1211C29.8828 99.5664 29.4609 99.9297 29.1328 100.211C28.8281 100.469 28.5 100.727 28.1484 100.984C27.8203 101.242 27.4805 101.477 27.1289 101.688C26.7773 101.898 26.4375 102.062 26.1094 102.18C25.8047 102.32 25.5117 102.391 25.2305 102.391C24.6211 102.391 24.2227 102.051 24.0352 101.371L10.3945 53.2773C10.3477 53.0898 10.2891 52.9023 10.2188 52.7148C10.1719 52.5273 10.1484 52.3516 10.1484 52.1875C10.1484 51.6016 10.2891 51.1094 10.5703 50.7109C10.8516 50.3125 11.3438 49.9727 12.0469 49.6914C12.75 49.4102 13.6875 49.1875 14.8594 49.0234C16.0312 48.8359 17.5195 48.6836 19.3242 48.5664C20.168 48.4492 20.8711 48.3672 21.4336 48.3203C22.0195 48.2734 22.5117 48.25 22.9102 48.25C23.5898 48.25 24.0352 48.3555 24.2461 48.5664C24.457 48.7773 24.6445 49.1289 24.8086 49.6211L32.0508 77.5L38.0625 67.1641L35.6367 56.582C35.4961 56.0195 35.4375 55.5977 35.4609 55.3164C35.4609 54.7773 35.6016 54.3438 35.8828 54.0156C36.1641 53.6875 36.6328 53.418 37.2891 53.207C37.9453 52.9961 38.8008 52.8086 39.8555 52.6445C40.9336 52.4805 42.2461 52.293 43.793 52.082C44.4727 51.9883 45.0586 51.918 45.5508 51.8711C46.043 51.8242 46.4648 51.8008 46.8164 51.8008C47.5195 51.8008 48 51.9062 48.2578 52.1172C48.5156 52.3281 48.7031 52.668 48.8203 53.1367L53.6016 74.793L60.5273 52.293ZM92.4844 60.7656C94.7109 60.7656 96.7266 61.1875 98.5312 62.0312C100.359 62.8516 101.918 63.9297 103.207 65.2656C104.52 66.5781 105.527 68.0547 106.23 69.6953C106.934 71.3359 107.285 72.9766 107.285 74.6172C107.285 76.0703 106.84 77.5352 105.949 79.0117C105.059 80.4648 103.805 81.7773 102.188 82.9492C100.594 84.1211 98.6719 85.0703 96.4219 85.7969C94.1719 86.5234 91.6992 86.8867 89.0039 86.8867C87.5977 86.8867 86.1211 86.7461 84.5742 86.4648C84.668 87.4727 84.9609 88.3398 85.4531 89.0664C85.9453 89.793 86.5664 90.3906 87.3164 90.8594C88.0664 91.3281 88.9102 91.6797 89.8477 91.9141C90.8086 92.125 91.793 92.2305 92.8008 92.2305C93.9258 92.2305 95.0039 92.1367 96.0352 91.9492C97.0898 91.7383 98.0977 91.4688 99.0586 91.1406C100.02 90.8125 100.945 90.4492 101.836 90.0508C102.727 89.6523 103.57 89.2539 104.367 88.8555C104.578 88.8086 104.754 88.7734 104.895 88.75C105.059 88.7031 105.211 88.6797 105.352 88.6797C105.352 88.6797 105.34 88.8672 105.316 89.2422C105.316 89.6172 105.316 90.1445 105.316 90.8242C105.316 91.5039 105.305 92.3242 105.281 93.2852C105.281 94.2461 105.27 95.3125 105.246 96.4844C105.316 96.6016 105.363 96.7188 105.387 96.8359C105.41 96.9531 105.422 97.0469 105.422 97.1172C105.422 97.3984 105.164 97.7031 104.648 98.0312C104.133 98.3594 103.453 98.6992 102.609 99.0508C101.789 99.4023 100.84 99.7422 99.7617 100.07C98.707 100.398 97.6289 100.691 96.5273 100.949C95.4258 101.23 94.3594 101.441 93.3281 101.582C92.2969 101.746 91.3945 101.828 90.6211 101.828C88.0898 101.828 85.6289 101.383 83.2383 100.492C80.8711 99.625 78.7617 98.3711 76.9102 96.7305C75.082 95.0898 73.6172 93.0977 72.5156 90.7539C71.4141 88.4102 70.8633 85.7734 70.8633 82.8438C70.8633 79.7734 71.3906 76.9023 72.4453 74.2305C73.5 71.5352 74.9766 69.1914 76.875 67.1992C78.7969 65.207 81.082 63.6367 83.7305 62.4883C86.3789 61.3398 89.2969 60.7656 92.4844 60.7656ZM92.0625 70.1172C91.1016 70.1172 90.2109 70.3281 89.3906 70.75C88.5938 71.1484 87.8555 71.7344 87.1758 72.5078C86.5195 73.2578 85.9453 74.1719 85.4531 75.25C84.9609 76.3047 84.5625 77.4766 84.2578 78.7656C86.6719 78.3438 88.6758 77.8984 90.2695 77.4297C91.8633 76.9609 93.1406 76.4922 94.1016 76.0234C95.0625 75.5312 95.7422 75.0508 96.1406 74.582C96.5391 74.0898 96.7383 73.6211 96.7383 73.1758C96.7383 72.7539 96.5742 72.3555 96.2461 71.9805C95.9414 71.6055 95.5547 71.2773 95.0859 70.9961C94.6172 70.7148 94.1016 70.5039 93.5391 70.3633C93 70.1992 92.5078 70.1172 92.0625 70.1172ZM126.516 88.5391C126.75 89.0078 127.078 89.4883 127.5 89.9805C127.945 90.4492 128.449 90.8828 129.012 91.2812C129.598 91.6797 130.23 92.0078 130.91 92.2656C131.59 92.5 132.293 92.6172 133.02 92.6172C134.027 92.6172 134.977 92.2305 135.867 91.457C136.758 90.6602 137.531 89.6055 138.188 88.293C138.867 86.957 139.395 85.4453 139.77 83.7578C140.145 82.0469 140.332 80.2773 140.332 78.4492C140.332 77.3242 140.227 76.2578 140.016 75.25C139.828 74.2422 139.523 73.3633 139.102 72.6133C138.68 71.8633 138.129 71.2656 137.449 70.8203C136.793 70.375 135.996 70.1523 135.059 70.1523C133.535 70.1523 132.141 70.5977 130.875 71.4883C129.609 72.3789 128.543 73.5156 127.676 74.8984L126.516 88.5391ZM113.438 101.723C113.109 101.793 112.852 101.828 112.664 101.828C111.914 101.828 111.539 101.383 111.539 100.492C111.539 100.375 111.539 100.258 111.539 100.141C111.562 100.023 111.586 99.8945 111.609 99.7539L115.688 50.0078C115.688 49.9375 115.688 49.8672 115.688 49.7969C115.711 49.7266 115.723 49.668 115.723 49.6211C115.723 49.5273 115.711 49.4453 115.688 49.375C115.688 49.3047 115.688 49.2461 115.688 49.1992C115.688 48.9883 115.758 48.8242 115.898 48.707C116.062 48.5664 116.461 48.4141 117.094 48.25L126.973 45.8945C127.23 45.8477 127.57 45.7422 127.992 45.5781C128.414 45.4141 128.824 45.332 129.223 45.332C129.527 45.332 129.809 45.4023 130.066 45.543C130.348 45.6836 130.488 45.9531 130.488 46.3516C130.488 46.3984 130.477 46.4453 130.453 46.4922C130.453 46.5391 130.453 46.5859 130.453 46.6328C130.43 46.75 130.371 47.2656 130.277 48.1797C130.184 49.0938 130.078 50.207 129.961 51.5195C129.844 52.8086 129.715 54.2031 129.574 55.7031C129.434 57.1797 129.305 58.5742 129.188 59.8867C129.07 61.1758 128.965 62.2773 128.871 63.1914C128.777 64.1055 128.719 64.6211 128.695 64.7383C130.406 63.6133 132.176 62.6758 134.004 61.9258C135.832 61.1523 137.66 60.7656 139.488 60.7656C141.902 60.7656 143.988 61.2695 145.746 62.2773C147.504 63.2617 148.957 64.5859 150.105 66.25C151.254 67.8906 152.098 69.7891 152.637 71.9453C153.199 74.1016 153.48 76.3281 153.48 78.625C153.48 80.4766 153.305 82.3398 152.953 84.2148C152.625 86.0664 152.133 87.8477 151.477 89.5586C150.844 91.2695 150.035 92.875 149.051 94.375C148.09 95.875 146.977 97.1758 145.711 98.2773C144.469 99.3789 143.074 100.246 141.527 100.879C139.98 101.512 138.305 101.828 136.5 101.828C134.32 101.828 132.328 101.348 130.523 100.387C128.719 99.4258 127.043 98.1836 125.496 96.6602C125.449 97.2227 125.414 97.668 125.391 97.9961C125.367 98.3242 125.285 98.582 125.145 98.7695C125.027 98.9336 124.84 99.0742 124.582 99.1914C124.324 99.2852 123.938 99.3906 123.422 99.5078C123.164 99.5781 122.707 99.6953 122.051 99.8594C121.418 100 120.645 100.164 119.73 100.352C118.84 100.562 117.844 100.785 116.742 101.02C115.664 101.254 114.562 101.488 113.438 101.723Z" fill="#FAA307"/>
<path d="M158.297 76.2344C158.297 73.6562 158.602 71.1836 159.211 68.8164C159.844 66.4258 160.734 64.1992 161.883 62.1367C163.031 60.0742 164.414 58.1992 166.031 56.5117C167.672 54.8242 169.5 53.3828 171.516 52.1875C173.531 50.9688 175.711 50.0312 178.055 49.375C180.422 48.7188 182.906 48.3906 185.508 48.3906C187.57 48.3906 189.375 48.5312 190.922 48.8125C192.492 49.0703 193.852 49.4102 195 49.832C196.172 50.2305 197.145 50.6758 197.918 51.168C198.715 51.6602 199.371 52.1289 199.887 52.5742C199.863 52.5742 199.852 52.6562 199.852 52.8203C199.852 53.1719 199.875 53.8164 199.922 54.7539C199.992 55.6914 200.062 56.7344 200.133 57.8828C200.227 59.0312 200.297 60.2031 200.344 61.3984C200.414 62.5703 200.449 63.5898 200.449 64.457C200.449 64.5977 200.402 64.7617 200.309 64.9492C200.215 65.1133 199.98 65.1953 199.605 65.1953C199.395 65.1953 199.137 65.1602 198.832 65.0898C198.34 64.9492 197.719 64.6328 196.969 64.1406C196.219 63.625 195.34 63.0977 194.332 62.5586C193.348 61.9961 192.234 61.5039 190.992 61.082C189.773 60.6367 188.438 60.4141 186.984 60.4141C185.062 60.4141 183.316 60.8008 181.746 61.5742C180.176 62.3242 178.84 63.3672 177.738 64.7031C176.637 66.0391 175.781 67.6328 175.172 69.4844C174.562 71.3125 174.258 73.3164 174.258 75.4961C174.258 77.418 174.469 79.2578 174.891 81.0156C175.312 82.75 175.945 84.2734 176.789 85.5859C177.656 86.8984 178.723 87.9531 179.988 88.75C181.277 89.5234 182.766 89.9102 184.453 89.9102C185.789 89.9102 186.973 89.8633 188.004 89.7695C189.035 89.6758 189.996 89.5234 190.887 89.3125C191.777 89.1016 192.645 88.8203 193.488 88.4688C194.355 88.1172 195.281 87.6719 196.266 87.1328C196.312 87.1094 196.43 87.0977 196.617 87.0977C196.781 87.0977 196.887 87.168 196.934 87.3086C197.004 87.4258 197.039 87.6836 197.039 88.082V92.3008C197.039 93.0742 197.027 93.8359 197.004 94.5859C197.004 95.3125 196.992 95.9688 196.969 96.5547C196.969 97.1406 196.957 97.6211 196.934 97.9961C196.934 98.3477 196.922 98.5234 196.898 98.5234C195.82 99.2031 194.66 99.7539 193.418 100.176C192.199 100.621 190.934 100.961 189.621 101.195C188.332 101.453 187.031 101.617 185.719 101.688C184.406 101.781 183.141 101.828 181.922 101.828C178.617 101.828 175.523 101.207 172.641 99.9648C169.758 98.6992 167.25 96.9414 165.117 94.6914C163.008 92.4414 161.344 89.7461 160.125 86.6055C158.906 83.4648 158.297 80.0078 158.297 76.2344ZM207.586 48.8828C207.586 48.7422 207.574 48.6133 207.551 48.4961C207.551 48.3789 207.551 48.2617 207.551 48.1445C207.551 47.9336 207.633 47.7578 207.797 47.6172C207.961 47.4531 208.359 47.2891 208.992 47.125L218.871 44.7695C219.129 44.7227 219.469 44.6172 219.891 44.4531C220.312 44.2891 220.723 44.207 221.121 44.207C221.941 44.207 222.352 44.582 222.352 45.332C222.352 45.3789 222.316 45.8594 222.246 46.7734C222.176 47.6875 222.082 48.8242 221.965 50.1836C221.848 51.543 221.719 53.0312 221.578 54.6484C221.438 56.2422 221.297 57.7656 221.156 59.2188C221.016 60.6719 220.887 61.9492 220.77 63.0508C220.652 64.1289 220.559 64.832 220.488 65.1602C221.59 64.5508 222.738 63.9766 223.934 63.4375C225.129 62.8984 226.324 62.4297 227.52 62.0312C228.738 61.6328 229.945 61.3281 231.141 61.1172C232.359 60.8828 233.531 60.7656 234.656 60.7656C236.086 60.7656 237.422 60.9766 238.664 61.3984C239.906 61.7969 240.984 62.4766 241.898 63.4375C242.836 64.375 243.562 65.6172 244.078 67.1641C244.617 68.6875 244.887 70.5625 244.887 72.7891C244.887 73.3516 244.875 73.9375 244.852 74.5469C244.828 75.1328 244.781 75.7422 244.711 76.375L243.199 90.7539C243.082 91.7383 243.012 92.7695 242.988 93.8477C242.965 94.9023 242.953 95.9922 242.953 97.1172C242.953 97.3047 242.953 97.4688 242.953 97.6094C242.977 97.7266 242.988 97.832 242.988 97.9258C242.988 98.1367 242.895 98.3008 242.707 98.418C242.543 98.5352 242.156 98.6875 241.547 98.875L232.934 101.266C232.676 101.336 232.336 101.441 231.914 101.582C231.492 101.746 231.082 101.828 230.684 101.828C230.285 101.828 229.98 101.734 229.77 101.547C229.559 101.383 229.453 101.043 229.453 100.527C229.617 98.7695 229.746 97.3516 229.84 96.2734C229.957 95.1953 230.039 94.3398 230.086 93.707C230.156 93.0508 230.215 92.5586 230.262 92.2305C230.309 91.8789 230.344 91.5742 230.367 91.3164C230.391 91.0352 230.426 90.7305 230.473 90.4023C230.52 90.0508 230.566 89.5469 230.613 88.8906C230.684 88.2344 230.766 87.3672 230.859 86.2891C230.977 85.2109 231.117 83.793 231.281 82.0352C231.375 81.0977 231.469 80.1719 231.562 79.2578C231.68 78.3203 231.738 77.4648 231.738 76.6914C231.738 75.707 231.68 74.8164 231.562 74.0195C231.469 73.1992 231.281 72.5078 231 71.9453C230.742 71.3594 230.379 70.9023 229.91 70.5742C229.441 70.2461 228.844 70.082 228.117 70.082C227.578 70.082 226.84 70.1992 225.902 70.4336C224.988 70.668 224.062 71.0547 223.125 71.5938C222.211 72.1328 221.391 72.8477 220.664 73.7383C219.961 74.6055 219.562 75.6836 219.469 76.9727C219.281 78.7773 219.129 80.2539 219.012 81.4023C218.918 82.5508 218.836 83.5 218.766 84.25C218.695 85 218.637 85.5977 218.59 86.043C218.566 86.4883 218.543 86.8984 218.52 87.2734C218.496 87.3906 218.461 87.6836 218.414 88.1523C218.367 88.5977 218.309 89.1367 218.238 89.7695C218.168 90.4023 218.098 91.082 218.027 91.8086C217.957 92.5117 217.887 93.1797 217.816 93.8125C217.77 94.4453 217.723 94.9961 217.676 95.4648C217.652 95.9102 217.641 96.1914 217.641 96.3086C217.641 96.4961 217.641 96.6602 217.641 96.8008C217.664 96.918 217.676 97.0352 217.676 97.1523C217.676 97.3398 217.582 97.5039 217.395 97.6445C217.23 97.7617 216.844 97.9023 216.234 98.0664L207.059 101.266C206.801 101.359 206.461 101.477 206.039 101.617C205.617 101.758 205.207 101.828 204.809 101.828C204.457 101.828 204.164 101.723 203.93 101.512C203.695 101.324 203.578 100.996 203.578 100.527L207.586 48.8828ZM286.16 92.9336C286.137 93.0273 286.125 93.1211 286.125 93.2148C286.125 93.2852 286.125 93.3555 286.125 93.4258C286.125 94.0117 286.219 94.5039 286.406 94.9023C286.594 95.2773 286.793 95.5938 287.004 95.8516C287.238 96.0859 287.449 96.2852 287.637 96.4492C287.824 96.5898 287.918 96.7188 287.918 96.8359C287.918 97.1641 287.566 97.4688 286.863 97.75L277.406 101.793C277.383 101.816 277.301 101.828 277.16 101.828C276.973 101.828 276.785 101.664 276.598 101.336C276.41 101.008 276.223 100.586 276.035 100.07C275.871 99.5781 275.707 99.0508 275.543 98.4883C275.402 97.9023 275.273 97.3633 275.156 96.8711C273.68 98.582 272.086 99.8359 270.375 100.633C268.664 101.43 266.965 101.828 265.277 101.828C263.309 101.828 261.387 101.395 259.512 100.527C257.637 99.6602 255.973 98.4297 254.52 96.8359C253.066 95.2188 251.895 93.2734 251.004 91C250.137 88.7266 249.703 86.1719 249.703 83.3359C249.703 79.9844 250.184 76.9258 251.145 74.1602C252.129 71.3945 253.453 69.0156 255.117 67.0234C256.781 65.0312 258.715 63.4961 260.918 62.418C263.145 61.3164 265.5 60.7656 267.984 60.7656C269.742 60.7656 271.406 61.1289 272.977 61.8555C274.547 62.5586 276.035 63.4727 277.441 64.5977C277.582 63.8945 277.664 63.332 277.688 62.9102C277.711 62.4883 277.758 62.1602 277.828 61.9258C277.922 61.6914 278.086 61.5391 278.32 61.4688C278.555 61.375 278.941 61.3047 279.48 61.2578C281.168 61.0234 282.844 60.8125 284.508 60.625C286.195 60.4141 287.953 60.2617 289.781 60.168L286.16 92.9336ZM275.648 79.6797C275.883 78.3438 276.035 77.0898 276.105 75.918C276.199 74.7227 276.27 73.6328 276.316 72.6484C275.941 72.3672 275.531 72.0742 275.086 71.7695C274.664 71.4648 274.195 71.1836 273.68 70.9258C273.188 70.6445 272.66 70.4219 272.098 70.2578C271.559 70.0938 270.984 70.0117 270.375 70.0117C269.109 70.0117 268.043 70.4219 267.176 71.2422C266.332 72.0625 265.641 73.0703 265.102 74.2656C264.586 75.4609 264.211 76.7266 263.977 78.0625C263.766 79.3984 263.66 80.582 263.66 81.6133C263.66 85.3164 264.141 88.0352 265.102 89.7695C266.086 91.4805 267.445 92.3359 269.18 92.3359C269.883 92.3359 270.668 92.1367 271.535 91.7383C272.402 91.3398 273.281 90.7891 274.172 90.0859L275.648 79.6797ZM313.09 72.8945C312.762 75.3555 312.445 77.8164 312.141 80.2773C311.859 82.7148 311.684 85 311.613 87.1328C311.613 88.0469 311.684 88.8086 311.824 89.418C311.965 90.0273 312.164 90.5078 312.422 90.8594C312.703 91.2109 313.031 91.4688 313.406 91.6328C313.781 91.7734 314.203 91.8438 314.672 91.8438C315.422 91.8438 316.242 91.7383 317.133 91.5273C318.023 91.293 318.914 91 319.805 90.6484C320.086 90.5312 320.32 90.4492 320.508 90.4023C320.719 90.332 320.895 90.2969 321.035 90.2969C321.27 90.2969 321.422 90.4023 321.492 90.6133C321.586 90.8242 321.668 91.1992 321.738 91.7383C321.832 92.2539 321.961 92.957 322.125 93.8477C322.289 94.7383 322.559 95.8633 322.934 97.2227C322.957 97.3398 322.969 97.4453 322.969 97.5391C322.992 97.6094 323.004 97.6797 323.004 97.75C323.004 98.0781 322.875 98.3125 322.617 98.4531C322.383 98.5938 321.984 98.7578 321.422 98.9453C320.461 99.2734 319.441 99.6133 318.363 99.9648C317.309 100.293 316.254 100.598 315.199 100.879C314.168 101.16 313.172 101.383 312.211 101.547C311.25 101.734 310.406 101.828 309.68 101.828C305.766 101.828 302.906 100.855 301.102 98.9102C299.32 96.9648 298.43 94 298.43 90.0156C298.43 89.3359 298.453 88.6445 298.5 87.9414C298.547 87.2148 298.605 86.4648 298.676 85.6914C298.91 83.3477 299.109 81.1328 299.273 79.0469C299.461 76.9375 299.648 74.9219 299.836 73H296.145C294.879 73 293.965 72.9531 293.402 72.8594C292.84 72.7422 292.559 72.5195 292.559 72.1914C292.559 72.0977 292.676 71.8516 292.91 71.4531C293.145 71.0312 293.438 70.5391 293.789 69.9766C294.164 69.3906 294.562 68.7695 294.984 68.1133C295.406 67.457 295.805 66.8477 296.18 66.2852C296.578 65.6992 296.918 65.1953 297.199 64.7734C297.48 64.3516 297.656 64.0938 297.727 64H300.223C300.434 62.2188 300.598 60.7305 300.715 59.5352C300.855 58.3164 300.961 57.3086 301.031 56.5117C301.125 55.7148 301.207 55.1055 301.277 54.6836C301.348 54.2383 301.418 53.9102 301.488 53.6992C301.582 53.4883 301.688 53.3594 301.805 53.3125C301.945 53.2422 302.121 53.1836 302.332 53.1367C303.387 52.9258 304.406 52.7383 305.391 52.5742C306.375 52.3867 307.359 52.1992 308.344 52.0117C309.328 51.8242 310.324 51.6133 311.332 51.3789C312.363 51.1211 313.43 50.8281 314.531 50.5C314.602 50.5 314.648 50.5 314.672 50.5C314.695 50.4766 314.742 50.4648 314.812 50.4648C315.094 50.4648 315.234 50.5586 315.234 50.7461V50.8164C315.117 52.1055 314.93 53.8984 314.672 56.1953C314.438 58.4922 314.168 61.0938 313.863 64H323.285C323.473 64 323.648 64.0703 323.812 64.2109C324 64.3281 324.094 64.5391 324.094 64.8438C324.094 64.9609 323.953 65.3828 323.672 66.1094C323.391 66.8359 322.992 67.7852 322.477 68.957L321.211 71.8047C321.047 72.1562 320.871 72.4141 320.684 72.5781C320.52 72.7422 320.168 72.8477 319.629 72.8945H313.09Z" fill="#D00000"/>
</g>
<defs>
<filter id="filter0_d" x="0.75" y="0.320801" width="194.25" height="152.358" filterUnits="userSpaceOnUse" color-interpolation-filters="sRGB">
<feFlood flood-opacity="0" result="BackgroundImageFix"/>
<feColorMatrix in="SourceAlpha" type="matrix" values="0 0 0 0 0 0 0 0 0 0 0 0 0 0 0 0 0 0 127 0"/>
<feOffset dy="2"/>
<feGaussianBlur stdDeviation="1.5"/>
<feColorMatrix type="matrix" values="0 0 0 0 0 0 0 0 0 0 0 0 0 0 0 0 0 0 0.5 0"/>
<feBlend mode="normal" in2="BackgroundImageFix" result="effect1_dropShadow"/>
<feBlend mode="normal" in="SourceGraphic" in2="effect1_dropShadow" result="shape"/>
</filter>
<filter id="filter1_d" x="7.14844" y="43.207" width="319.946" height="64.184" filterUnits="userSpaceOnUse" color-interpolation-filters="sRGB">
<feFlood flood-opacity="0" result="BackgroundImageFix"/>
<feColorMatrix in="SourceAlpha" type="matrix" values="0 0 0 0 0 0 0 0 0 0 0 0 0 0 0 0 0 0 127 0"/>
<feOffset dy="2"/>
<feGaussianBlur stdDeviation="1.5"/>
<feColorMatrix type="matrix" values="0 0 0 0 0 0 0 0 0 0 0 0 0 0 0 0 0 0 0.5 0"/>
<feBlend mode="normal" in2="BackgroundImageFix" result="effect1_dropShadow"/>
<feBlend mode="normal" in="SourceGraphic" in2="effect1_dropShadow" result="shape"/>
</filter>
</defs>
</svg>
